<svg width="154" height="135" viewBox="0 0 154 135" fill="none" xmlns="http://www.w3.org/2000/svg">
<g filter="url(#filter0_d_206_55)">
<path d="M107.408 29.47H123.908C129.261 29.47 133.294 30.3867 136.008 32.22C138.794 34.0533 140.188 37.2433 140.188 41.79V102.73C140.188 105.297 139.784 106.983 138.978 107.79C138.244 108.597 136.631 109 134.138 109H122.588V43.11C122.588 41.9367 122.404 41.13 122.038 40.69C121.744 40.1767 120.938 39.92 119.618 39.92H107.408V29.47ZM67.4777 109H55.9277C53.4344 109 51.7844 108.597 50.9777 107.79C50.2444 106.983 49.8777 105.297 49.8777 102.73V33.87C49.8777 32.55 50.2444 31.4867 50.9777 30.68C51.7111 29.8733 52.6644 29.47 53.8377 29.47H67.4777V109ZM71.9878 29.47H100.148C101.321 29.47 102.274 29.8733 103.008 30.68C103.741 31.4867 104.108 32.55 104.108 33.87V100.97H92.6677C90.4677 100.97 88.8911 100.383 87.9378 99.21C86.9844 97.9633 86.5078 95.9833 86.5078 93.27V43.11C86.5078 41.9367 86.3244 41.13 85.9578 40.69C85.6644 40.1767 84.8577 39.92 83.5377 39.92H71.9878V29.47Z" fill="#FF0089"/>
<path d="M68.2 30.47V103.73C68.2 106.297 67.7967 107.983 66.99 108.79C66.2567 109.597 64.6433 110 62.15 110H46.53C42.2033 110 39.3433 109.34 37.95 108.02C36.63 106.7 35.4567 103.29 34.43 97.79C32.3767 86.9367 29.4067 69.41 25.52 45.21C25.2267 43.3767 24.7867 42.2033 24.2 41.69C23.6867 41.1767 22.77 40.8833 21.45 40.81H7.92V30.47H31.79C33.6233 30.47 35.09 30.69 36.19 31.13C37.29 31.57 38.17 32.5233 38.83 33.99C39.5633 35.3833 40.04 36.74 40.26 38.06C40.5533 39.38 40.8467 40.92 41.14 42.68C41.5067 44.8067 42.02 47.9233 42.68 52.03C43.9267 60.3167 45.87 72.0133 48.51 87.12C49.5367 93.5733 50.2333 97.2033 50.6 98.01C51.04 98.7433 51.7733 99.1833 52.8 99.33V34.87C52.8 33.55 53.1667 32.4867 53.9 31.68C54.6333 30.8733 55.5867 30.47 56.76 30.47H68.2ZM7.92 44.66H19.36C20.5333 44.66 21.4867 45.0633 22.22 45.87C22.9533 46.6767 23.32 47.74 23.32 49.06V103.73C23.32 106.223 22.99 107.91 22.33 108.79C21.67 109.597 20.35 110 18.37 110H7.92V44.66Z" fill="#FF0089"/>
</g>
<defs>
<filter id="filter0_d_206_55" x="3.91998" y="29.47" width="140.268" height="88.53" filterUnits="userSpaceOnUse" color-interpolation-filters="sRGB">
<feFlood flood-opacity="0" result="BackgroundImageFix"/>
<feColorMatrix in="SourceAlpha" type="matrix" values="0 0 0 0 0 0 0 0 0 0 0 0 0 0 0 0 0 0 127 0" result="hardAlpha"/>
<feOffset dy="4"/>
<feGaussianBlur stdDeviation="2"/>
<feComposite in2="hardAlpha" operator="out"/>
<feColorMatrix type="matrix" values="0 0 0 0 0 0 0 0 0 0 0 0 0 0 0 0 0 0 0.25 0"/>
<feBlend mode="normal" in2="BackgroundImageFix" result="effect1_dropShadow_206_55"/>
<feBlend mode="normal" in="SourceGraphic" in2="effect1_dropShadow_206_55" result="shape"/>
</filter>
</defs>
</svg>
